<svg width="1280" height="280" viewBox="0 0 1280 280" xmlns="http://www.w3.org/2000/svg" role="img" aria-label="Sovereign Memory">
<rect width="1280" height="280" fill="#F4F1EA"/>
<line x1="60" y1="46" x2="1220" y2="46" stroke="#181613" stroke-width="1.5"/><line x1="60" y1="52" x2="1220" y2="52" stroke="#181613" stroke-width="0.5"/>
<text x="60" y="78" font-family="IBM Plex Mono, monospace" font-size="11" letter-spacing="2" fill="#7C817B">A LOCAL-FIRST MEMORY + GOVERNANCE LAYER FOR AI AGENTS · PRE-V1 ALPHA</text>
<text x="58" y="184" font-family="Inter, sans-serif" font-weight="720" font-size="86" fill="#181613" letter-spacing="-1.8">Sovereign Memory</text>
<text x="62" y="220" font-family="Inter, sans-serif" font-size="18" font-style="italic" fill="#4E4A42">Long-running agents forget. Sovereign Memory remembers — locally, on your terms.</text>
<text x="62" y="254" font-family="IBM Plex Mono, monospace" font-size="10.5" letter-spacing="1.2" fill="#7C817B">454 TESTS PASSING  ·  26 MCP TOOLS  ·  MIT  ·  NO TELEMETRY  ·  NO CLOUD SYNC</text>
<g transform="translate(1000 24) scale(0.52)">
<path d="M94 408 Q90 396 106 396 L134 396 Q150 396 146 408 Q120 420 94 408 Z" fill="#3E8A73" stroke="#1E5E4C" stroke-width="3"/>
<path d="M110 400 V414 M128 400 V414" stroke="#1E5E4C" stroke-width="2.5" fill="none"/>
<path d="M174 408 Q170 396 186 396 L214 396 Q230 396 226 408 Q200 420 174 408 Z" fill="#3E8A73" stroke="#1E5E4C" stroke-width="3"/>
<path d="M190 400 V414 M208 400 V414" stroke="#1E5E4C" stroke-width="2.5" fill="none"/>
<rect x="104" y="356" width="34" height="50" rx="14" fill="#3E8A73" stroke="#1E5E4C" stroke-width="3"/>
<rect x="182" y="356" width="34" height="50" rx="14" fill="#3E8A73" stroke="#1E5E4C" stroke-width="3"/>
<path d="M86 200 Q70 210 74 250 L92 370 Q160 388 228 370 L246 250 Q250 210 234 200 Q160 176 86 200 Z" fill="#8C6B3F" stroke="#5E4612" stroke-width="4"/>
<path d="M160 184 Q210 188 234 200 Q250 210 246 250 L228 370 Q196 380 160 381 Z" fill="#5E4612" opacity="0.28"/>
<ellipse cx="110" cy="300" rx="13" ry="9" fill="#5E4612" opacity="0.22"/>
<ellipse cx="205" cy="330" rx="10" ry="7" fill="#A98551" opacity="0.30"/>
<path d="M160 188 L150 360 M160 188 L170 360" stroke="#5E4612" stroke-width="2.5" fill="none" opacity="0.6"/>
<circle cx="160" cy="236" r="4.5" fill="#C9A961" stroke="#5E4612" stroke-width="1.5"/>
<circle cx="160" cy="272" r="4.5" fill="#C9A961" stroke="#5E4612" stroke-width="1.5"/>
<circle cx="160" cy="308" r="4.5" fill="#C9A961" stroke="#5E4612" stroke-width="1.5"/>
<path d="M86 256 Q160 274 234 256" stroke="#C9A961" stroke-width="8" fill="none" stroke-linecap="round"/>
<path d="M150 262 q-8 14 -2 26 M170 262 q8 14 2 26" stroke="#C9A961" stroke-width="6" fill="none" stroke-linecap="round"/>
<path d="M120 196 L210 320" stroke="#5E4612" stroke-width="9" fill="none" opacity="0.85"/>
<rect x="206" y="300" width="56" height="46" rx="8" fill="#7A5A2E" stroke="#5E4612" stroke-width="3"/>
<path d="M206 314 H262" stroke="#5E4612" stroke-width="3"/>
<rect x="228" y="308" width="12" height="12" rx="2" fill="#C9A961"/>
<path d="M232 214 Q258 240 250 300" stroke="#8C6B3F" stroke-width="30" fill="none" stroke-linecap="round"/>
<path d="M232 214 Q258 240 250 300" stroke="#5E4612" stroke-width="30" fill="none" stroke-linecap="round" opacity="0.18"/>
<g transform="rotate(-12 250 320)"><rect x="222" y="288" width="60" height="74" rx="4" fill="#7A5A2E" stroke="#5E4612" stroke-width="3"/>
<rect x="222" y="288" width="10" height="74" fill="#5E4612"/>
<circle cx="256" cy="325" r="15" fill="#242320" stroke="#C9A961" stroke-width="1.5"/>
<g transform="translate(256 325) scale(0.135) translate(-60 -70)"><g fill="none" stroke="#F4F1EA" stroke-width="9" stroke-linecap="round" stroke-linejoin="round"><path d="M40 22 V118"/><path d="M80 22 V118"/><path d="M60 24 L43 72"/><path d="M60 24 L77 72"/><path d="M40 72 H80"/></g></g></g>
<circle cx="248" cy="300" r="13" fill="#3E8A73" stroke="#1E5E4C" stroke-width="3"/>
<ellipse cx="160" cy="150" rx="74" ry="64" fill="#3E8A73" stroke="#1E5E4C" stroke-width="3.5"/>
<path d="M160 88 Q220 92 232 150 Q230 196 190 210 Q210 150 160 90 Z" fill="#1E5E4C" opacity="0.18"/>
<ellipse cx="160" cy="178" rx="46" ry="30" fill="#5BA88E" opacity="0.45"/>
<circle cx="118" cy="104" r="32" fill="#3E8A73" stroke="#1E5E4C" stroke-width="3.5"/>
<circle cx="202" cy="104" r="32" fill="#3E8A73" stroke="#1E5E4C" stroke-width="3.5"/>
<circle cx="118" cy="104" r="19" fill="#F4F1EA"/><circle cx="202" cy="104" r="19" fill="#F4F1EA"/>
<circle cx="123" cy="107" r="9.5" fill="#181613"/><circle cx="197" cy="107" r="9.5" fill="#181613"/>
<circle cx="127" cy="103" r="3" fill="#F4F1EA"/><circle cx="201" cy="103" r="3" fill="#F4F1EA"/>
<circle cx="150" cy="150" r="2.6" fill="#1E5E4C"/><circle cx="170" cy="150" r="2.6" fill="#1E5E4C"/>
<circle cx="100" cy="168" r="7" fill="#C9A961" opacity="0.6"/><circle cx="220" cy="168" r="7" fill="#C9A961" opacity="0.6"/>
<path d="M118 176 Q160 210 202 176" fill="none" stroke="#181613" stroke-width="4.5" stroke-linecap="round"/>
<path d="M104 196 Q160 218 216 196 Q224 214 214 226 Q160 244 106 226 Q96 214 104 196 Z" fill="#C26A4A" stroke="#9C4F33" stroke-width="2.5"/>
<path d="M118 224 Q112 250 122 270 L138 264 Q132 240 134 222 Z" fill="#C26A4A" stroke="#9C4F33" stroke-width="2.5"/>
<path d="M118 224 Q112 250 122 270" stroke="#9C4F33" stroke-width="2" fill="none" opacity="0.5"/>
<path d="M92 214 Q66 232 64 276" stroke="#8C6B3F" stroke-width="30" fill="none" stroke-linecap="round"/>
<path d="M92 214 Q66 232 64 276" stroke="#A98551" stroke-width="14" fill="none" stroke-linecap="round" opacity="0.30"/>
<rect x="40" y="262" width="50" height="46" rx="6" fill="#242320" stroke="#181613" stroke-width="3"/>
<path d="M90 272 q18 0 18 14 t-18 14" fill="none" stroke="#181613" stroke-width="6"/>
<circle cx="65" cy="285" r="13" fill="#242320" stroke="#C9A961" stroke-width="1.4"/>
<g transform="translate(65 285) scale(0.115) translate(-60 -70)"><g fill="none" stroke="#C9A961" stroke-width="10" stroke-linecap="round" stroke-linejoin="round"><path d="M40 22 V118"/><path d="M80 22 V118"/><path d="M60 24 L43 72"/><path d="M60 24 L77 72"/><path d="M40 72 H80"/></g></g>
<path d="M54 256 q-8 -12 0 -22 q8 -10 0 -20" stroke="#F4F1EA" stroke-width="3" fill="none" opacity="0.7" stroke-linecap="round"/>
<path d="M76 256 q-8 -12 0 -22 q8 -10 0 -20" stroke="#F4F1EA" stroke-width="3" fill="none" opacity="0.55" stroke-linecap="round"/>
<circle cx="66" cy="276" r="13" fill="#3E8A73" stroke="#1E5E4C" stroke-width="3"/>
<ellipse cx="160" cy="78" rx="104" ry="24" fill="#7A5A2E" stroke="#5E4612" stroke-width="3"/>
<ellipse cx="160" cy="74" rx="104" ry="22" fill="#7A5A2E" stroke="#5E4612" stroke-width="2"/>
<path d="M104 76 Q106 24 128 18 Q160 8 192 18 Q214 24 216 76 Z" fill="#7A5A2E" stroke="#5E4612" stroke-width="3"/>
<path d="M160 12 Q192 18 214 76 L196 76 Q190 30 160 16 Z" fill="#5E4612" opacity="0.25"/>
<path d="M106 60 Q160 72 214 60 L214 76 Q160 86 106 76 Z" fill="#242320"/>
<circle cx="160" cy="68" r="15" fill="#242320" stroke="#C9A961" stroke-width="1.6"/>
<g transform="translate(160 68) scale(0.155) translate(-60 -70)"><g fill="none" stroke="#F4F1EA" stroke-width="9" stroke-linecap="round" stroke-linejoin="round"><path d="M40 22 V118"/><path d="M80 22 V118"/><path d="M60 24 L43 72"/><path d="M60 24 L77 72"/><path d="M40 72 H80"/></g></g>
</g>
</svg>